Coordinates
version=1
nRows=7
nColumns=40
inDegrees=yes

Units are S.I. units (second, meters, Newtons, ...)
Angles are in degrees.

endheader
time	pelvis_tilt	pelvis_list	pelvis_rotation	pelvis_tx	pelvis_ty	pelvis_tz	hip_flexion_r	hip_adduction_r	hip_rotation_r	knee_angle_r	knee_angle_r_beta	ankle_angle_r	subtalar_angle_r	mtp_angle_r	hip_flexion_l	hip_adduction_l	hip_rotation_l	knee_angle_l	knee_angle_l_beta	ankle_angle_l	subtalar_angle_l	mtp_angle_l	lumbar_extension	lumbar_bending	lumbar_rotation	arm_flex_r	arm_add_r	arm_rot_r	elbow_flex_r	pro_sup_r	wrist_flex_r	wrist_dev_r	arm_flex_l	arm_add_l	arm_rot_l	elbow_flex_l	pro_sup_l	wrist_flex_l	wrist_dev_l
      2.54000000	     -2.53990373	     -4.39735065	      3.00178186	      0.76973362	      0.93097125	      0.49500890	     12.28033765	      2.59874296	    -13.71652144	     18.04763564	     18.04763564	     10.12737961	     -4.07112121	     -5.58764474	     26.58409572	    -10.02709065	      1.22835189	     60.74237376	     60.74237376	     11.49011748	    -18.39703014	     12.20983393	     -9.06977671	      6.26041381	      0.96488138	      7.48279864	    -19.54330309	     -4.45643703	     49.37890406	     45.73994812	      0.00000000	      0.00000000	     -0.15091282	    -10.31245638	     -5.37722869	     42.11674227	     45.73331798	      0.00000000	      0.00000000
      2.55307143	     -2.73421346	     -4.12170211	      3.34392401	      0.76824996	      0.93148741	      0.49538792	     11.83147613	      2.41792342	    -13.75177325	     17.56884107	     17.56884107	     10.30470167	     -4.24754741	     -5.58251012	     27.62920155	     -9.48420286	      1.37143261	     58.09289594	     58.09289594	     11.81131964	    -18.36277588	     12.30787868	     -9.11168354	      5.85906183	      0.84844728	      8.94178057	    -19.51774462	     -4.51990317	     50.50822432	     45.70764749	      0.00000000	      0.00000000	     -1.00057838	    -10.29756694	     -5.29515161	     41.00073887	     45.71310746	      0.00000000	      0.00000000
      2.56614286	     -2.92154023	     -3.93893308	      3.70593789	      0.76677573	      0.93183228	      0.49572920	     11.36812827	      2.33447419	    -13.82633832	     17.05364322	     17.05364322	     10.35273149	     -4.45913256	     -5.92635416	     28.46853653	     -9.02417599	      1.53400296	     55.09395478	     55.09395478	     11.71260274	    -18.31622498	     11.30297573	     -9.15057165	      5.60187934	      0.96102435	      9.85440072	    -20.00991227	     -3.87249280	     53.07574509	     45.58456755	      0.00000000	      0.00000000	     -1.02514877	     -9.98064105	     -5.60196299	     37.97571492	     45.76418520	      0.00000000	      0.00000000
      2.57921429	     -3.10119553	     -3.68314501	      4.04392728	      0.76535148	      0.93223093	      0.49603348	     10.91461825	      2.16894601	    -13.87006735	     16.59327653	     16.59327653	     10.55904347	     -4.60566500	     -5.88365443	     29.08542132	     -8.44125826	      1.65639584	     51.79394284	     51.79394284	     11.88217130	    -18.15951064	     11.43556587	     -9.22888573	      5.20250181	      0.84944480	     11.22822141	    -20.00679400	     -3.99047993	     54.34871582	     45.55045222	      0.00000000	      0.00000000	     -1.84096221	     -9.97715591	     -5.58599204	     37.08433560	     45.75239072	      0.00000000	      0.00000000
      2.59228571	     -3.29458902	     -3.54245641	      4.39188234	      0.76394190	      0.93242098	      0.49625255	     10.49591900	      2.10405061	    -14.02205307	     16.14509646	     16.14509646	     10.68298574	     -4.65800063	     -6.06226137	     29.55269980	     -7.95595560	      1.81836048	     48.19758013	     48.19758013	     11.53184533	    -18.00504794	     10.13899211	     -9.28602102	      5.00310018	      0.98029521	     11.95789209	    -20.51872278	     -3.55170612	     57.27091471	     45.43250992	      0.00000000	      0.00000000	     -1.77302442	     -9.68141835	     -5.98989553	     34.30207938	     45.82033213	      0.00000000	      0.00000000
      2.60535714	     -3.51459055	     -3.33437682	      4.70826128	      0.76257172	      0.93255447	      0.49642725	     10.13497807	      1.96456770	    -14.09622903	     15.75931747	     15.75931747	     10.88194488	     -4.78908977	     -6.02703092	     29.91499872	     -7.34991972	      1.98333900	     44.47253394	     44.47253394	     11.69468358	    -17.59661023	     10.31259553	     -9.31221273	      4.65028326	      0.86641176	     13.30390144	    -20.43667883	     -3.69989244	     58.53683383	     45.40115914	      0.00000000	      0.00000000	     -2.47504958	     -9.69325905	     -5.99387280	     33.47444628	     45.81211666	      0.00000000	      0.00000000
      2.61842857	     -3.74494513	     -3.22601047	      5.06219237	      0.76123986	      0.93250617	      0.49647726	      9.80022541	      1.89687713	    -14.32800641	     15.39903375	     15.39903375	     11.08131562	     -4.69818792	     -6.12524374	     30.15114221	     -6.83564484	      2.16224749	     40.48725552	     40.48725552	     11.07679642	    -17.15570360	      8.49640187	     -9.30749080	      4.48206091	      1.00014524	     13.90616671	    -20.78397708	     -3.49217735	     61.42534349	     45.30278603	      0.00000000	      0.00000000	     -2.22392844	     -9.43520464	     -6.38605089	     30.85244106	     45.88632840	      0.00000000	      0.00000000
